<mxfile host="app.diagrams.net" modified="2021-02-10T15:25:59.441Z" agent="5.0 (X11)" etag="5ulKOJD0Im_sAfw4d2mo" version="14.3.0" type="github">
  <diagram id="C5RBs43oDa-KdzZeNtuy" name="Page-1">
    <mxGraphModel dx="1471" dy="899" grid="1" gridSize="10" guides="1" tooltips="1" connect="1" arrows="1" fold="1" page="1" pageScale="1" pageWidth="827" pageHeight="1169" math="0" shadow="0">
      <root>
        <mxCell id="WIyWlLk6GJQsqaUBKTNV-0" />
        <mxCell id="WIyWlLk6GJQsqaUBKTNV-1" parent="WIyWlLk6GJQsqaUBKTNV-0" />
        <mxCell id="CUvgiHjACewIUkS6N6si-28" value="" style="rounded=0;whiteSpace=wrap;html=1;strokeColor=#d79b00;fillColor=#ffe6cc;" vertex="1" parent="WIyWlLk6GJQsqaUBKTNV-1">
          <mxGeometry x="80" y="180" width="650" height="900" as="geometry" />
        </mxCell>
        <mxCell id="WIyWlLk6GJQsqaUBKTNV-5" value="Tidak" style="edgeStyle=orthogonalEdgeStyle;rounded=0;html=1;jettySize=auto;orthogonalLoop=1;fontSize=11;endArrow=block;endFill=0;endSize=8;strokeWidth=1;shadow=0;labelBackgroundColor=none;entryX=0;entryY=0.5;entryDx=0;entryDy=0;" parent="WIyWlLk6GJQsqaUBKTNV-1" source="WIyWlLk6GJQsqaUBKTNV-6" target="WIyWlLk6GJQsqaUBKTNV-11" edge="1">
          <mxGeometry x="-0.3333" y="10" relative="1" as="geometry">
            <mxPoint as="offset" />
            <mxPoint x="780" y="460" as="targetPoint" />
          </mxGeometry>
        </mxCell>
        <mxCell id="WIyWlLk6GJQsqaUBKTNV-6" value="Ada kartu anggota?" style="rhombus;whiteSpace=wrap;html=1;shadow=0;fontFamily=Helvetica;fontSize=12;align=center;strokeWidth=1;spacing=6;spacingTop=-4;fillColor=#FFFF33;" parent="WIyWlLk6GJQsqaUBKTNV-1" vertex="1">
          <mxGeometry x="400" y="640" width="100" height="80" as="geometry" />
        </mxCell>
        <mxCell id="WIyWlLk6GJQsqaUBKTNV-11" value="END" style="rounded=1;whiteSpace=wrap;html=1;fontSize=12;glass=0;strokeWidth=1;shadow=0;fillColor=#FF4D0D;" parent="WIyWlLk6GJQsqaUBKTNV-1" vertex="1">
          <mxGeometry x="560" y="660" width="90" height="40" as="geometry" />
        </mxCell>
        <mxCell id="CUvgiHjACewIUkS6N6si-0" value="Mengisi daftar kunjungan" style="rounded=0;whiteSpace=wrap;html=1;fillColor=#FFFF33;" vertex="1" parent="WIyWlLk6GJQsqaUBKTNV-1">
          <mxGeometry x="220" y="310" width="120" height="60" as="geometry" />
        </mxCell>
        <mxCell id="CUvgiHjACewIUkS6N6si-1" value="Mencari buku yang akan dipinjam" style="rounded=0;whiteSpace=wrap;html=1;fillColor=#FFFF33;" vertex="1" parent="WIyWlLk6GJQsqaUBKTNV-1">
          <mxGeometry x="220" y="420" width="120" height="60" as="geometry" />
        </mxCell>
        <mxCell id="CUvgiHjACewIUkS6N6si-2" value="" style="rounded=0;html=1;jettySize=auto;orthogonalLoop=1;fontSize=11;endArrow=block;endFill=0;endSize=8;strokeWidth=1;shadow=0;labelBackgroundColor=none;edgeStyle=orthogonalEdgeStyle;entryX=0.5;entryY=0;entryDx=0;entryDy=0;" edge="1" parent="WIyWlLk6GJQsqaUBKTNV-1" target="CUvgiHjACewIUkS6N6si-1">
          <mxGeometry relative="1" as="geometry">
            <mxPoint x="279.5" y="370" as="sourcePoint" />
            <mxPoint x="279.5" y="400" as="targetPoint" />
          </mxGeometry>
        </mxCell>
        <mxCell id="CUvgiHjACewIUkS6N6si-5" value="" style="rounded=0;html=1;jettySize=auto;orthogonalLoop=1;fontSize=11;endArrow=block;endFill=0;endSize=8;strokeWidth=1;shadow=0;labelBackgroundColor=none;edgeStyle=orthogonalEdgeStyle;entryX=0.5;entryY=0;entryDx=0;entryDy=0;" edge="1" parent="WIyWlLk6GJQsqaUBKTNV-1">
          <mxGeometry relative="1" as="geometry">
            <mxPoint x="280" y="260" as="sourcePoint" />
            <mxPoint x="280.5" y="310" as="targetPoint" />
            <Array as="points">
              <mxPoint x="281" y="260" />
              <mxPoint x="281" y="285" />
            </Array>
          </mxGeometry>
        </mxCell>
        <mxCell id="CUvgiHjACewIUkS6N6si-6" value="" style="rounded=0;html=1;jettySize=auto;orthogonalLoop=1;fontSize=11;endArrow=block;endFill=0;endSize=8;strokeWidth=1;shadow=0;labelBackgroundColor=none;edgeStyle=orthogonalEdgeStyle;entryX=0.5;entryY=0;entryDx=0;entryDy=0;" edge="1" target="CUvgiHjACewIUkS6N6si-7" parent="WIyWlLk6GJQsqaUBKTNV-1">
          <mxGeometry relative="1" as="geometry">
            <mxPoint x="279.5" y="480" as="sourcePoint" />
            <mxPoint x="279.5" y="510" as="targetPoint" />
          </mxGeometry>
        </mxCell>
        <mxCell id="CUvgiHjACewIUkS6N6si-7" value="Menyerahkan buku kepada petugas" style="rounded=0;whiteSpace=wrap;html=1;fillColor=#FFFF33;" vertex="1" parent="WIyWlLk6GJQsqaUBKTNV-1">
          <mxGeometry x="220" y="530" width="120" height="60" as="geometry" />
        </mxCell>
        <mxCell id="CUvgiHjACewIUkS6N6si-8" value="&lt;div&gt;Menunjukkan &lt;br&gt;&lt;/div&gt;&lt;div&gt;kartu anggota&lt;/div&gt;&amp;nbsp;kepada petugas" style="rounded=0;whiteSpace=wrap;html=1;fillColor=#FFFF33;" vertex="1" parent="WIyWlLk6GJQsqaUBKTNV-1">
          <mxGeometry x="390" y="530" width="120" height="60" as="geometry" />
        </mxCell>
        <mxCell id="CUvgiHjACewIUkS6N6si-10" value="" style="rounded=0;html=1;jettySize=auto;orthogonalLoop=1;fontSize=11;endArrow=block;endFill=0;endSize=8;strokeWidth=1;shadow=0;labelBackgroundColor=none;edgeStyle=orthogonalEdgeStyle;entryX=0;entryY=0.5;entryDx=0;entryDy=0;" edge="1" parent="WIyWlLk6GJQsqaUBKTNV-1" target="CUvgiHjACewIUkS6N6si-8">
          <mxGeometry relative="1" as="geometry">
            <mxPoint x="340" y="560" as="sourcePoint" />
            <mxPoint x="340.5" y="610" as="targetPoint" />
          </mxGeometry>
        </mxCell>
        <mxCell id="CUvgiHjACewIUkS6N6si-11" value="" style="rounded=0;html=1;jettySize=auto;orthogonalLoop=1;fontSize=11;endArrow=block;endFill=0;endSize=8;strokeWidth=1;shadow=0;labelBackgroundColor=none;edgeStyle=orthogonalEdgeStyle;entryX=0.5;entryY=0;entryDx=0;entryDy=0;exitX=0.5;exitY=1;exitDx=0;exitDy=0;" edge="1" parent="WIyWlLk6GJQsqaUBKTNV-1" source="CUvgiHjACewIUkS6N6si-8" target="WIyWlLk6GJQsqaUBKTNV-6">
          <mxGeometry relative="1" as="geometry">
            <mxPoint x="430" y="590" as="sourcePoint" />
            <mxPoint x="440" y="650" as="targetPoint" />
          </mxGeometry>
        </mxCell>
        <mxCell id="CUvgiHjACewIUkS6N6si-12" value="Petugas memproses transaksi peminjaman" style="rounded=0;whiteSpace=wrap;html=1;fillColor=#FFFF33;" vertex="1" parent="WIyWlLk6GJQsqaUBKTNV-1">
          <mxGeometry x="370" y="770" width="160" height="60" as="geometry" />
        </mxCell>
        <mxCell id="CUvgiHjACewIUkS6N6si-14" value="START" style="rounded=1;whiteSpace=wrap;html=1;fontSize=12;glass=0;strokeWidth=1;shadow=0;fillColor=#009900;" vertex="1" parent="WIyWlLk6GJQsqaUBKTNV-1">
          <mxGeometry x="235" y="220" width="90" height="40" as="geometry" />
        </mxCell>
        <mxCell id="CUvgiHjACewIUkS6N6si-16" value="Ya" style="edgeStyle=orthogonalEdgeStyle;rounded=0;html=1;jettySize=auto;orthogonalLoop=1;fontSize=11;endArrow=block;endFill=0;endSize=8;strokeWidth=1;shadow=0;labelBackgroundColor=none;entryX=0.5;entryY=0;entryDx=0;entryDy=0;exitX=0.5;exitY=1;exitDx=0;exitDy=0;" edge="1" parent="WIyWlLk6GJQsqaUBKTNV-1" source="WIyWlLk6GJQsqaUBKTNV-6" target="CUvgiHjACewIUkS6N6si-12">
          <mxGeometry x="-0.2" y="20" relative="1" as="geometry">
            <mxPoint as="offset" />
            <mxPoint x="450" y="730" as="sourcePoint" />
            <mxPoint x="510" y="730" as="targetPoint" />
          </mxGeometry>
        </mxCell>
        <mxCell id="CUvgiHjACewIUkS6N6si-17" value="" style="rounded=0;html=1;jettySize=auto;orthogonalLoop=1;fontSize=11;endArrow=none;endFill=0;endSize=8;strokeWidth=1;shadow=0;labelBackgroundColor=none;edgeStyle=orthogonalEdgeStyle;startArrow=block;startFill=0;" edge="1" parent="WIyWlLk6GJQsqaUBKTNV-1">
          <mxGeometry relative="1" as="geometry">
            <mxPoint x="340" y="799.5" as="sourcePoint" />
            <mxPoint x="370" y="800" as="targetPoint" />
          </mxGeometry>
        </mxCell>
        <mxCell id="CUvgiHjACewIUkS6N6si-18" value="Menandatangani kartu anggota" style="rounded=0;whiteSpace=wrap;html=1;fillColor=#FFFF33;" vertex="1" parent="WIyWlLk6GJQsqaUBKTNV-1">
          <mxGeometry x="220" y="770" width="120" height="60" as="geometry" />
        </mxCell>
        <mxCell id="CUvgiHjACewIUkS6N6si-19" value="Menerima buku yang dipinjam" style="rounded=0;whiteSpace=wrap;html=1;fillColor=#FFFF33;" vertex="1" parent="WIyWlLk6GJQsqaUBKTNV-1">
          <mxGeometry x="220" y="890" width="120" height="60" as="geometry" />
        </mxCell>
        <mxCell id="CUvgiHjACewIUkS6N6si-21" value="" style="rounded=0;html=1;jettySize=auto;orthogonalLoop=1;fontSize=11;endArrow=block;endFill=0;endSize=8;strokeWidth=1;shadow=0;labelBackgroundColor=none;edgeStyle=orthogonalEdgeStyle;" edge="1" parent="WIyWlLk6GJQsqaUBKTNV-1">
          <mxGeometry relative="1" as="geometry">
            <mxPoint x="260" y="830" as="sourcePoint" />
            <mxPoint x="280" y="890" as="targetPoint" />
            <Array as="points">
              <mxPoint x="280" y="830" />
              <mxPoint x="280" y="880" />
            </Array>
          </mxGeometry>
        </mxCell>
        <mxCell id="CUvgiHjACewIUkS6N6si-22" value="END" style="rounded=1;whiteSpace=wrap;html=1;fontSize=12;glass=0;strokeWidth=1;shadow=0;fillColor=#FF4D0D;" vertex="1" parent="WIyWlLk6GJQsqaUBKTNV-1">
          <mxGeometry x="235" y="1010" width="90" height="40" as="geometry" />
        </mxCell>
        <mxCell id="CUvgiHjACewIUkS6N6si-23" value="" style="rounded=0;html=1;jettySize=auto;orthogonalLoop=1;fontSize=11;endArrow=block;endFill=0;endSize=8;strokeWidth=1;shadow=0;labelBackgroundColor=none;edgeStyle=orthogonalEdgeStyle;" edge="1" parent="WIyWlLk6GJQsqaUBKTNV-1">
          <mxGeometry relative="1" as="geometry">
            <mxPoint x="260" y="950" as="sourcePoint" />
            <mxPoint x="280" y="1010" as="targetPoint" />
            <Array as="points">
              <mxPoint x="280" y="950" />
              <mxPoint x="280" y="1000" />
            </Array>
          </mxGeometry>
        </mxCell>
        <mxCell id="CUvgiHjACewIUkS6N6si-24" value="&lt;div&gt;&lt;b&gt;&lt;font style=&quot;font-size: 18px&quot;&gt;FLOWCHART &lt;br&gt;&lt;/font&gt;&lt;/b&gt;&lt;/div&gt;&lt;div&gt;&lt;b&gt;&lt;font style=&quot;font-size: 18px&quot;&gt;PEMINJAMAN BUKU PERPUSTAKAAN&lt;/font&gt;&lt;/b&gt;&lt;/div&gt;" style="rounded=0;whiteSpace=wrap;html=1;strokeColor=#FFFFFF;" vertex="1" parent="WIyWlLk6GJQsqaUBKTNV-1">
          <mxGeometry x="590" y="60" width="400" height="60" as="geometry" />
        </mxCell>
        <mxCell id="CUvgiHjACewIUkS6N6si-29" value="&lt;font style=&quot;font-size: 14px&quot;&gt;&lt;b&gt;TRANSAKSI PEMINJAMAN&lt;/b&gt;&lt;/font&gt;" style="rounded=0;whiteSpace=wrap;html=1;strokeColor=#FFFFFF;fillColor=none;" vertex="1" parent="WIyWlLk6GJQsqaUBKTNV-1">
          <mxGeometry x="230" y="150" width="400" height="20" as="geometry" />
        </mxCell>
        <mxCell id="CUvgiHjACewIUkS6N6si-30" value="" style="rounded=0;whiteSpace=wrap;html=1;strokeColor=#d79b00;fillColor=#ffe6cc;" vertex="1" parent="WIyWlLk6GJQsqaUBKTNV-1">
          <mxGeometry x="840" y="180" width="650" height="900" as="geometry" />
        </mxCell>
        <mxCell id="CUvgiHjACewIUkS6N6si-31" value="Tidak" style="edgeStyle=orthogonalEdgeStyle;rounded=0;html=1;jettySize=auto;orthogonalLoop=1;fontSize=11;endArrow=block;endFill=0;endSize=8;strokeWidth=1;shadow=0;labelBackgroundColor=none;entryX=0;entryY=0.5;entryDx=0;entryDy=0;" edge="1" source="CUvgiHjACewIUkS6N6si-32" target="CUvgiHjACewIUkS6N6si-33" parent="WIyWlLk6GJQsqaUBKTNV-1">
          <mxGeometry x="-0.3333" y="10" relative="1" as="geometry">
            <mxPoint as="offset" />
            <mxPoint x="1540" y="460" as="targetPoint" />
          </mxGeometry>
        </mxCell>
        <mxCell id="CUvgiHjACewIUkS6N6si-32" value="Ada kartu anggota?" style="rhombus;whiteSpace=wrap;html=1;shadow=0;fontFamily=Helvetica;fontSize=12;align=center;strokeWidth=1;spacing=6;spacingTop=-4;fillColor=#FFFF33;" vertex="1" parent="WIyWlLk6GJQsqaUBKTNV-1">
          <mxGeometry x="1160" y="640" width="100" height="80" as="geometry" />
        </mxCell>
        <mxCell id="CUvgiHjACewIUkS6N6si-33" value="END" style="rounded=1;whiteSpace=wrap;html=1;fontSize=12;glass=0;strokeWidth=1;shadow=0;fillColor=#FF4D0D;" vertex="1" parent="WIyWlLk6GJQsqaUBKTNV-1">
          <mxGeometry x="1320" y="660" width="90" height="40" as="geometry" />
        </mxCell>
        <mxCell id="CUvgiHjACewIUkS6N6si-34" value="Mengisi daftar kunjungan" style="rounded=0;whiteSpace=wrap;html=1;fillColor=#FFFF33;" vertex="1" parent="WIyWlLk6GJQsqaUBKTNV-1">
          <mxGeometry x="980" y="340" width="120" height="60" as="geometry" />
        </mxCell>
        <mxCell id="CUvgiHjACewIUkS6N6si-37" value="" style="rounded=0;html=1;jettySize=auto;orthogonalLoop=1;fontSize=11;endArrow=block;endFill=0;endSize=8;strokeWidth=1;shadow=0;labelBackgroundColor=none;edgeStyle=orthogonalEdgeStyle;entryX=0.5;entryY=0;entryDx=0;entryDy=0;" edge="1" parent="WIyWlLk6GJQsqaUBKTNV-1" target="CUvgiHjACewIUkS6N6si-34">
          <mxGeometry relative="1" as="geometry">
            <mxPoint x="1039.9999999999998" y="260" as="sourcePoint" />
            <mxPoint x="1040.5" y="310" as="targetPoint" />
            <Array as="points">
              <mxPoint x="1041" y="285" />
            </Array>
          </mxGeometry>
        </mxCell>
        <mxCell id="CUvgiHjACewIUkS6N6si-39" value="Menyerahkan buku yang akan dikembalikan kepada petugas" style="rounded=0;whiteSpace=wrap;html=1;fillColor=#FFFF33;" vertex="1" parent="WIyWlLk6GJQsqaUBKTNV-1">
          <mxGeometry x="980" y="480" width="120" height="70" as="geometry" />
        </mxCell>
        <mxCell id="CUvgiHjACewIUkS6N6si-40" value="&lt;div&gt;Menunjukkan &lt;br&gt;&lt;/div&gt;&lt;div&gt;kartu anggota&lt;/div&gt;&amp;nbsp;kepada petugas" style="rounded=0;whiteSpace=wrap;html=1;fillColor=#FFFF33;" vertex="1" parent="WIyWlLk6GJQsqaUBKTNV-1">
          <mxGeometry x="1150" y="480" width="120" height="60" as="geometry" />
        </mxCell>
        <mxCell id="CUvgiHjACewIUkS6N6si-41" value="" style="rounded=0;html=1;jettySize=auto;orthogonalLoop=1;fontSize=11;endArrow=block;endFill=0;endSize=8;strokeWidth=1;shadow=0;labelBackgroundColor=none;edgeStyle=orthogonalEdgeStyle;entryX=0;entryY=0.5;entryDx=0;entryDy=0;exitX=1;exitY=0.5;exitDx=0;exitDy=0;" edge="1" target="CUvgiHjACewIUkS6N6si-40" parent="WIyWlLk6GJQsqaUBKTNV-1" source="CUvgiHjACewIUkS6N6si-39">
          <mxGeometry relative="1" as="geometry">
            <mxPoint x="1099.9999999999998" y="560" as="sourcePoint" />
            <mxPoint x="1100.5" y="610" as="targetPoint" />
          </mxGeometry>
        </mxCell>
        <mxCell id="CUvgiHjACewIUkS6N6si-42" value="" style="rounded=0;html=1;jettySize=auto;orthogonalLoop=1;fontSize=11;endArrow=block;endFill=0;endSize=8;strokeWidth=1;shadow=0;labelBackgroundColor=none;edgeStyle=orthogonalEdgeStyle;entryX=0.5;entryY=0;entryDx=0;entryDy=0;exitX=0.5;exitY=1;exitDx=0;exitDy=0;" edge="1" source="CUvgiHjACewIUkS6N6si-40" target="CUvgiHjACewIUkS6N6si-32" parent="WIyWlLk6GJQsqaUBKTNV-1">
          <mxGeometry relative="1" as="geometry">
            <mxPoint x="1190" y="590" as="sourcePoint" />
            <mxPoint x="1200" y="650" as="targetPoint" />
          </mxGeometry>
        </mxCell>
        <mxCell id="CUvgiHjACewIUkS6N6si-43" value="Petugas memproses transaksi peminjaman" style="rounded=0;whiteSpace=wrap;html=1;fillColor=#FFFF33;" vertex="1" parent="WIyWlLk6GJQsqaUBKTNV-1">
          <mxGeometry x="1130" y="770" width="160" height="60" as="geometry" />
        </mxCell>
        <mxCell id="CUvgiHjACewIUkS6N6si-44" value="START" style="rounded=1;whiteSpace=wrap;html=1;fontSize=12;glass=0;strokeWidth=1;shadow=0;fillColor=#009900;" vertex="1" parent="WIyWlLk6GJQsqaUBKTNV-1">
          <mxGeometry x="995" y="220" width="90" height="40" as="geometry" />
        </mxCell>
        <mxCell id="CUvgiHjACewIUkS6N6si-45" value="Ya" style="edgeStyle=orthogonalEdgeStyle;rounded=0;html=1;jettySize=auto;orthogonalLoop=1;fontSize=11;endArrow=block;endFill=0;endSize=8;strokeWidth=1;shadow=0;labelBackgroundColor=none;entryX=0.5;entryY=0;entryDx=0;entryDy=0;exitX=0.5;exitY=1;exitDx=0;exitDy=0;" edge="1" source="CUvgiHjACewIUkS6N6si-32" target="CUvgiHjACewIUkS6N6si-43" parent="WIyWlLk6GJQsqaUBKTNV-1">
          <mxGeometry x="-0.2" y="20" relative="1" as="geometry">
            <mxPoint as="offset" />
            <mxPoint x="1210" y="730" as="sourcePoint" />
            <mxPoint x="1270" y="730" as="targetPoint" />
          </mxGeometry>
        </mxCell>
        <mxCell id="CUvgiHjACewIUkS6N6si-46" value="" style="rounded=0;html=1;jettySize=auto;orthogonalLoop=1;fontSize=11;endArrow=none;endFill=0;endSize=8;strokeWidth=1;shadow=0;labelBackgroundColor=none;edgeStyle=orthogonalEdgeStyle;startArrow=block;startFill=0;" edge="1" parent="WIyWlLk6GJQsqaUBKTNV-1">
          <mxGeometry relative="1" as="geometry">
            <mxPoint x="1099.9999999999998" y="799.4999999999998" as="sourcePoint" />
            <mxPoint x="1129.9999999999998" y="800" as="targetPoint" />
          </mxGeometry>
        </mxCell>
        <mxCell id="CUvgiHjACewIUkS6N6si-47" value="Menandatangani kartu anggota" style="rounded=0;whiteSpace=wrap;html=1;fillColor=#FFFF33;" vertex="1" parent="WIyWlLk6GJQsqaUBKTNV-1">
          <mxGeometry x="980" y="770" width="120" height="60" as="geometry" />
        </mxCell>
        <mxCell id="CUvgiHjACewIUkS6N6si-48" value="Menerima buku yang dipinjam" style="rounded=0;whiteSpace=wrap;html=1;fillColor=#FFFF33;" vertex="1" parent="WIyWlLk6GJQsqaUBKTNV-1">
          <mxGeometry x="980" y="890" width="120" height="60" as="geometry" />
        </mxCell>
        <mxCell id="CUvgiHjACewIUkS6N6si-49" value="" style="rounded=0;html=1;jettySize=auto;orthogonalLoop=1;fontSize=11;endArrow=block;endFill=0;endSize=8;strokeWidth=1;shadow=0;labelBackgroundColor=none;edgeStyle=orthogonalEdgeStyle;" edge="1" parent="WIyWlLk6GJQsqaUBKTNV-1">
          <mxGeometry relative="1" as="geometry">
            <mxPoint x="1019.9999999999998" y="830" as="sourcePoint" />
            <mxPoint x="1039.9999999999998" y="890" as="targetPoint" />
            <Array as="points">
              <mxPoint x="1040" y="830" />
              <mxPoint x="1040" y="880" />
            </Array>
          </mxGeometry>
        </mxCell>
        <mxCell id="CUvgiHjACewIUkS6N6si-50" value="END" style="rounded=1;whiteSpace=wrap;html=1;fontSize=12;glass=0;strokeWidth=1;shadow=0;fillColor=#FF4D0D;" vertex="1" parent="WIyWlLk6GJQsqaUBKTNV-1">
          <mxGeometry x="995" y="1010" width="90" height="40" as="geometry" />
        </mxCell>
        <mxCell id="CUvgiHjACewIUkS6N6si-51" value="" style="rounded=0;html=1;jettySize=auto;orthogonalLoop=1;fontSize=11;endArrow=block;endFill=0;endSize=8;strokeWidth=1;shadow=0;labelBackgroundColor=none;edgeStyle=orthogonalEdgeStyle;" edge="1" parent="WIyWlLk6GJQsqaUBKTNV-1">
          <mxGeometry relative="1" as="geometry">
            <mxPoint x="1019.9999999999998" y="950" as="sourcePoint" />
            <mxPoint x="1039.9999999999998" y="1010" as="targetPoint" />
            <Array as="points">
              <mxPoint x="1040" y="950" />
              <mxPoint x="1040" y="1000" />
            </Array>
          </mxGeometry>
        </mxCell>
        <mxCell id="CUvgiHjACewIUkS6N6si-52" value="&lt;font style=&quot;font-size: 14px&quot;&gt;&lt;b&gt;TRANSAKSI PENGEMBALIAN&lt;/b&gt;&lt;/font&gt;" style="rounded=0;whiteSpace=wrap;html=1;strokeColor=#FFFFFF;fillColor=none;" vertex="1" parent="WIyWlLk6GJQsqaUBKTNV-1">
          <mxGeometry x="960" y="150" width="400" height="20" as="geometry" />
        </mxCell>
        <mxCell id="CUvgiHjACewIUkS6N6si-53" value="" style="rounded=0;html=1;jettySize=auto;orthogonalLoop=1;fontSize=11;endArrow=block;endFill=0;endSize=8;strokeWidth=1;shadow=0;labelBackgroundColor=none;edgeStyle=orthogonalEdgeStyle;entryX=0.5;entryY=0;entryDx=0;entryDy=0;" edge="1" parent="WIyWlLk6GJQsqaUBKTNV-1">
          <mxGeometry relative="1" as="geometry">
            <mxPoint x="1045.29" y="400" as="sourcePoint" />
            <mxPoint x="1045.29" y="480" as="targetPoint" />
            <Array as="points">
              <mxPoint x="1046.29" y="425" />
            </Array>
          </mxGeometry>
        </mxCell>
      </root>
    </mxGraphModel>
  </diagram>
</mxfile>
